<?xml version="1.0" encoding="utf-8"?>
<!-- Generator: Adobe Illustrator 16.0.0, SVG Export Plug-In . SVG Version: 6.00 Build 0)  -->
<!DOCTYPE svg PUBLIC "-//W3C//DTD SVG 1.1//EN" "http://www.w3.org/Graphics/SVG/1.1/DTD/svg11.dtd">
<svg version="1.1" id="Layer_1" xmlns="http://www.w3.org/2000/svg" xmlns:xlink="http://www.w3.org/1999/xlink" x="0px" y="0px"
	 width="400px" height="400px" viewBox="0 0 400 400" enable-background="new 0 0 400 400" xml:space="preserve">
<rect x="128.484" y="346.707" fill-rule="evenodd" clip-rule="evenodd" fill="#E8E7E5" width="163.246" height="53.293"/>
<ellipse fill-rule="evenodd" clip-rule="evenodd" fill="#E8E7E5" cx="200" cy="183.155" rx="194.945" ry="183.153"/>
<path fill-rule="evenodd" clip-rule="evenodd" d="M288.057,400c-2.184-5.479-4.482-10.916-6.523-16.447
	c-3.279-8.876-6.395-17.813-9.564-26.73c-0.266-0.753-0.416-1.549-0.672-2.528c2.604-1.079,5.125-2.114,7.637-3.165
	c2.885-1.208,5.756-2.447,8.652-3.628c0.535-0.22,1.156-0.228,1.74-0.333c0.588,0.227,1.174,0.454,1.76,0.681
	c1.098-0.402,1.844,0.327,2.662,0.823c0.992,1.018,2.023,0.939,3.084,0.097c2.541-1.4,5.146-0.796,7.748-0.26
	c0.758,0.048,1.512,0.114,2.107,0.671c0.973,1.392,2.666,1.331,4.016,1.969c0.785,0.368,1.549,0.769,2.031,1.539
	c-0.107,1.211,1.328,2.392,0.082,3.634c-4.092,1.109-4.354,1.713-1.689,4.878c1.949,2.316,3.057,5.055,4.17,7.764
	c3.795,9.235,6.584,18.81,9.168,28.444c0.238,0.894,0.465,1.795-0.27,2.593C312.148,400,300.102,400,288.057,400z"/>
<path fill-rule="evenodd" clip-rule="evenodd" d="M130.115,355.198c7.258,2.196,14.516,4.391,21.891,6.62
	c-0.48,0.22-0.932,0.611-1.373,0.601c-2.744-0.068-3.84,1.823-4.895,3.877c-4.031,7.834-6.32,16.251-8.324,24.761
	c-0.699,2.965-1.26,5.962-1.885,8.943c-10.414,0-20.828,0-31.24,0c-0.787-0.846-0.789-1.863-0.545-2.88
	c2.668-11.234,5.6-22.378,11.828-32.31c1.916-3.055,4.295-5.681,7.182-7.86C124.975,355.278,127.279,354.18,130.115,355.198z"/>
<path fill-rule="evenodd" clip-rule="evenodd" fill="#E8E7E5" d="M94.461,361.344c4.148-4.298,9.355-6.666,15.082-7.789
	c3.039-0.597,6.213-0.521,9.33-0.708c0.801-0.049,1.674-0.065,1.873,1.045c-0.125,0.446-0.475,0.668-0.85,0.861
	c-1.395,0.565-2.697,1.287-3.891,2.209c-3.93,2.682-6.191,6.633-8.209,10.771c-0.793,1.502-1.385,3.07-1.555,4.775
	c-0.061,0.433-0.174,0.851-0.338,1.256c-0.918,1.516-1.252,3.21-1.514,4.928c-0.111,0.75-0.332,1.474-0.496,2.213
	c-0.576,1.816-0.652,3.7-0.736,5.583c-0.031,0.331-0.1,0.652-0.184,0.971c-0.635,2.13-0.025,4.366-0.545,6.507
	c-0.83,1.926,0.307,4.246-1.203,6.034c-8.986,0-17.971,0-26.953,0c0.203-0.406,0.41-0.813,0.615-1.22
	c0.549-0.966-0.078-2.402,1.225-3.066c0.148-0.028,0.297-0.044,0.445-0.047c0.461-0.252,0.686-0.817,1.24-0.95
	c1.377-0.586,1.523-1.79,1.535-3.06c0.145-2.078,1.797-3.455,2.447-5.301c5.047-8.516,10.148-16.989,18.67-22.598
	c-1.553-1.152-1.553-1.152-2.168-3.142c-1.365,0.327-2.086,2.396-3.902,1.491C94.211,361.833,94.229,361.577,94.461,361.344z"/>
<path fill-rule="evenodd" clip-rule="evenodd" fill="#E8E7E5" d="M312.539,352.925c-0.627-0.438-1.252-0.875-1.877-1.314
	c-1.016-0.748-2.611-0.582-3.186-2.025c0.123-0.501,0.355-0.808,0.922-0.513c3.67,0.506,6.709,2.386,9.672,4.433
	c0.527,0.612,1.217,0.924,1.992,1.075c1.779,1.283,3.557,2.565,5.336,3.849c0.375,1.195,1.77,0.974,2.439,1.761
	c6.734,5.064,12.115,11.448,16.977,18.206c3.967,5.512,7.316,11.467,10.938,17.225c0.918,1.46,1.832,2.92,2.748,4.38
	c-0.611,0-1.225,0-1.838,0c-1.986-1.563-2.945-3.89-4.188-5.95c-5.275-8.776-11.92-16.505-18.342-24.408
	c-0.898-1.108-1.783-2.224-2.617-3.347c-0.086-0.222-0.215-0.276-0.371-0.141c0.158,0.117,0.254,0.275,0.299,0.489
	c0.102,3.05,0.102,3.05-2.207,4.952c9.291,7.104,16.859,15.9,24.416,24.706c0.902,1.051,1.951,2.099,1.785,3.698
	c-9.393,0-18.785,0-28.18,0c-1.58-1.972-0.328-4.45-1.178-6.553c-0.217-0.832-0.244-1.683-0.262-2.534
	c-0.039-1.457,0.141-2.932-0.352-4.354c-0.363-1.388-0.076-2.871-0.633-4.23c-1.082-5.415-1.82-10.904-3.953-16.073
	c-0.818-1.973-1.729-3.85-3.057-5.517C316.859,357.599,314.176,355.616,312.539,352.925z"/>
<path fill-rule="evenodd" clip-rule="evenodd" fill="#292929" d="M119.59,354.104c0.385-0.07,0.771-0.142,1.156-0.213
	c1.014-0.402,2.029-0.806,3.043-1.21c2.107,0.839,4.219,1.678,6.326,2.517c-4.572-0.246-7.643,2.565-10.396,5.532
	c-4.494,4.846-7.396,10.725-9.443,16.946c-2.094,6.368-3.83,12.855-5.664,19.308c-0.273,0.958-0.225,2.008-0.322,3.016
	c-0.613,0-1.227,0-1.84,0c-0.922-1.165-0.744-2.579-0.559-3.831c0.467-3.119,0.533-6.241,0.527-9.377l-0.109-0.108l0.082-0.133
	c0.869-1.964,0.971-4.025,0.773-6.125c0.18-0.622,0.359-1.247,0.539-1.871c1.143-1.475,0.932-3.433,1.775-5.014
	c0.025-0.37,0.049-0.739,0.072-1.111c0.91-1.22,1.135-2.751,1.828-4.07c2.195-4.376,4.469-8.69,8.693-11.533
	C117.131,355.772,118.768,355.464,119.59,354.104z"/>
<path fill-rule="evenodd" clip-rule="evenodd" fill="#292929" d="M324.195,400c-0.678-2.746-1.203-5.54-2.064-8.228
	c-2.311-7.237-4.637-14.476-7.219-21.619c-1.264-3.492-2.693-7.01-5.463-9.712c-0.217-0.213-0.445-0.428-0.609-0.68
	c-1.193-1.827-0.539-3.443,1.592-3.781c0.895-0.141,1.826-0.038,2.738-0.046c3.424,0.011,3.865,3.039,5.213,5.154
	c3.107,5.296,4.697,11.115,5.779,17.088c0.326,1.784,0.533,3.566,1.547,5.131c-0.33,3.333,0.355,6.599,0.66,9.885
	c0.211,2.301,0.738,4.584-0.334,6.808C325.422,400,324.809,400,324.195,400z"/>
<path fill-rule="evenodd" clip-rule="evenodd" fill="#FDFDFB" d="M331.551,365.692c2.127,2.438,4.375,4.782,6.355,7.333
	c4.422,5.69,8.828,11.403,13.006,17.271c2.174,3.053,3.85,6.458,5.75,9.703c-0.406,0-0.814,0-1.225,0
	c-2.301-2.813-4.537-5.685-6.92-8.427c-3.254-3.74-6.482-7.522-9.986-11.021c-2.707-2.702-5.814-5.006-8.762-7.466
	c-0.617-0.514-1.313-0.929-2.271-1.601c2.67-0.862,3.922-2.509,3.426-5.17C330.707,365.683,330.977,365.534,331.551,365.692z"/>
<path fill-rule="evenodd" clip-rule="evenodd" fill="#0D0D0D" d="M326.035,400c-0.359-4.426-0.773-8.849-1.037-13.279
	c-0.082-1.374,0.242-2.771,0.383-4.157l-0.115-0.254l0.207-0.187c0.213,1.414,0.426,2.829,0.639,4.243
	c0.586,1.436-0.178,3.02,0.482,4.446c0.045,0.761,0.09,1.521,0.135,2.28c0.299,2.307,0.447,4.61-0.082,6.907
	C326.443,400,326.238,400,326.035,400z"/>
<path fill-rule="evenodd" clip-rule="evenodd" fill="#171716" d="M102.418,386.792c0.605,2.469,0.813,4.881,0.182,7.451
	c-0.447,1.821-0.127,3.831-0.15,5.757c-0.203,0-0.406,0-0.611,0c-0.547-2.13-0.369-4.267-0.07-6.405
	C101.984,391.327,102.203,389.06,102.418,386.792z"/>
<path fill-rule="evenodd" clip-rule="evenodd" fill="#292929" d="M326.646,400c0.027-2.303,0.055-4.604,0.082-6.907
	c0.178,2.303,0.352,4.604,0.529,6.907C327.053,400,326.852,400,326.646,400z"/>
<path fill-rule="evenodd" clip-rule="evenodd" fill="#1F1E1D" d="M101.768,393.595c0.023,2.136,0.047,4.27,0.07,6.405
	c-0.203,0-0.408,0-0.611,0C101.406,397.864,101.588,395.73,101.768,393.595z"/>
<path fill-rule="evenodd" clip-rule="evenodd" fill="#E5E7E7" d="M77.949,395.099c-0.463,0.19-0.926,0.38-1.389,0.569
	c3.357-9.781,5.801-19.974,12.262-28.389c1.654-2.152,3.748-3.967,5.639-5.936c0.012,0.235,0.025,0.471,0.037,0.706
	c0.426,1.014-0.105,1.814-0.697,2.488c-5.381,6.131-8.801,13.351-11.67,20.882c-0.992,1.969-1.852,3.998-2.738,6.016
	C78.939,392.667,78.996,394.101,77.949,395.099z"/>
<path fill-rule="evenodd" clip-rule="evenodd" fill="#E0E1E0" d="M293.564,349.168c-0.826-0.439-1.652-0.879-2.479-1.319
	c0.094-1.577,1.396-1.636,2.414-1.646c3.076-0.034,6.158,0.019,9.043,1.401c0.586,0.282,1.359,0.176,2.047,0.246
	c0.363,0.409,0.373,0.82,0.01,1.234c-2.742-0.724-5.42-0.484-8.047,0.534C295.365,350.738,294.518,349.599,293.564,349.168z"/>
<path fill-rule="evenodd" clip-rule="evenodd" fill="#D3E5E6" d="M304.6,349.084c-0.002-0.41-0.006-0.822-0.008-1.233
	c1.268,0.407,2.537,0.815,3.805,1.222c-0.252,0.208-0.508,0.416-0.76,0.623c-0.377,0.383-0.771,0.443-1.189,0.064
	C305.832,349.534,305.217,349.31,304.6,349.084z"/>
<path fill-rule="evenodd" clip-rule="evenodd" fill="#E6E6E4" d="M327.838,360.189c-0.652-0.095-1.305-0.179-1.955-0.286
	c-1.088-0.181-0.777-0.834-0.484-1.475C326.211,359.017,327.025,359.603,327.838,360.189z"/>
<path fill-rule="evenodd" clip-rule="evenodd" fill="#F0EFED" d="M354.805,293.402c0.012,0.223,0.025,0.445,0.037,0.668
	c-0.613,0.609-1.229,1.22-1.842,1.829c0.199-0.829,0.396-1.657,0.598-2.485C353.998,293.306,354.398,293.15,354.805,293.402z"/>
<path fill-rule="evenodd" clip-rule="evenodd" fill="#E6E6E4" d="M320.063,354.58c-1.236,0.703-1.889,0.32-1.992-1.075
	C318.734,353.862,319.4,354.221,320.063,354.58z"/>
<path fill-rule="evenodd" clip-rule="evenodd" fill="#D9D8D6" d="M305.207,71.054c3.422,1.984,6.725,4.1,10.576,5.358
	c6.885,2.251,13.434,1.396,19.881-1.323c2.5-1.055,4.846-2.467,7.58-3.88c1.156,2.53,2.348,4.974,3.404,7.472
	c4.291,10.135,7.594,20.619,10.344,31.25c2.029,7.845,3.633,15.816,5.043,23.799c1.162,6.575,1.883,13.237,2.578,19.883
	c0.752,7.156,1.322,14.333,1.832,21.51c0.338,4.764,0.441,9.544,0.639,14.316c0.207,4.975,0.41,9.951,0.592,14.929
	c0.025,0.675-0.08,1.354-0.299,2.023c-0.506-3.792-0.982-7.588-1.527-11.374c-0.391-2.707-0.754-5.427-1.332-8.096
	c-2.004-9.256-4.863-18.25-8.139-27.138c-3.568-9.68-7.799-19.049-12.648-28.124c-4.414-8.254-8.996-16.431-13.828-24.442
	c-7.096-11.762-15.143-22.888-23.375-33.878c-0.426-0.567-0.881-1.112-1.322-1.668c-0.188-0.139-0.248-0.275-0.186-0.413
	C305.082,71.122,305.145,71.054,305.207,71.054z"/>
<path fill-rule="evenodd" clip-rule="evenodd" fill="#FEFEFC" d="M370.15,105.362c1.426-1.365-0.025-2.856,0.207-5.08
	c2.047,4.105,3.865,7.544,5.498,11.069c4.832,10.436,8.586,21.262,11.031,32.495c1.225,5.623,1.91,11.36,2.875,17.04
	c1.662,9.783,1.395,19.66,1.1,29.497c-0.176,5.94-1.277,11.854-2.016,17.775c-0.236,1.903-0.605,3.794-0.99,5.675
	c-0.092,0.448-0.484,0.834-0.738,1.247c-4.342-0.718-8.139-3.073-12.385-4.108c-1.273-0.312-2.953-0.197-3.41-2.006
	c0.209-3.342,0.504-6.682,0.592-10.028c0.051-1.913-0.24-3.837-0.369-5.756c-0.063-0.912-0.17-1.826-0.162-2.738
	c0.074-7.832-0.146-15.639-1.182-23.424c-0.641-4.818-0.758-9.704-1.355-14.529c-0.646-5.22-1.453-10.429-2.408-15.602
	c-1.529-8.269-3.219-16.506-4.883-24.748c-0.541-2.681-1.219-5.335-1.834-8.001c-0.225-0.767-0.877-1.677,0.629-1.858
	c1.656,1.124,3.24,2.388,5,3.32c1.092,0.579,2.438,0.748,3.693,0.89C369.367,106.528,369.779,105.761,370.15,105.362z"/>
<path fill-rule="evenodd" clip-rule="evenodd" d="M212.104,387.205c-5.295-0.232-10.615-0.201-15.877-0.751
	c-12.096-1.266-23.271-5.069-32.771-12.972c-3.783-3.146-7.035-6.763-9.879-11.53c38.654,8.445,76.299,6.385,113.813-6.302
	c-1.527,4.737-3.58,8.654-6.602,11.921c-2.57,2.781-5.508,5.234-8.367,7.735c-1.137,0.994-2.453,1.812-3.771,2.565
	c-7.629,4.365-15.922,6.727-24.563,8.004c-2.814,0.415-5.641,0.762-8.459,1.14C214.488,387.762,213.295,387.479,212.104,387.205z"/>
<path fill-rule="evenodd" clip-rule="evenodd" fill="#010101" d="M371.322,208.967c3.438,1.181,6.898,2.293,10.301,3.569
	c1.885,0.707,3.666,1.688,5.494,2.545c-0.186,0.942-0.305,1.905-0.598,2.812c-0.098,0.302-0.652,0.454-0.996,0.677
	c-4.545-1.706-9.225-3.081-13.508-5.435c-3.535-0.672-7.07-1.345-10.605-2.017c-2.77-0.317-5.607,0.275-8.33-0.644
	c-0.697,0.653-1.514,1.218-2.068,1.975c-5.01,6.819-9.959,13.682-14.961,20.506c-1.48,2.022-3.074,3.962-4.615,5.94
	c-0.83,0.441-0.887,1.62-1.953,1.973c-1.215-0.165-1.744-1.527-2.873-1.949c-1.436-1.401-2.871-2.804-4.307-4.206
	c-0.209-1.275,0.807-1.245,1.502-1.199c1.729,0.116,1.672-0.982,1.631-2.136c0.176-1.301,0.855-2.183,2.125-2.574
	c0.686-0.082,1.383-0.028,1.723-0.898c0.334-0.854,0.943-1.715,1.719-2.059c2.82-1.257,3.564-3.611,3.721-6.364
	c2.035-4.217,5.521-7.446,8.043-11.646c-6.465-2.163-13.189-1.231-19.551-2.745c-2.006-0.681-4.059-0.287-6.084-0.252
	c-6.525,0.111-13.057-0.354-19.574,0.175c-0.334,0.046-0.666,0.049-0.994,0.028c-1.512-0.241-1.07,1.523-1.951,1.706
	c-10.426-0.41-20.852-0.367-31.279-0.21c-0.484,0.164-0.984,0.188-1.486,0.205c-4.475,0.165-8.961,0.173-13.422,0.521
	c-14.215,1.116-28.463,2.019-42.625,3.638c-19.523,2.23-38.982,5.02-58.465,7.615c-4.641,0.616-9.25,1.481-13.893,2.093
	c-2.559,0.338-4.48,1.447-5.949,3.566c-1.318,1.904-2.801,3.693-4.211,5.532c-1.154,0.597-1.416-0.059-1.316-1.012
	c0.09-0.886,0.5-1.7,0.762-2.547c0.326-0.813,0.594-1.664,1.281-2.272c0.723-0.585,1.941-0.642,2.051-2.124
	c-0.813-0.238-1.313,0.489-1.943,0.717c-2.709,0.985-5.582,1.059-8.391,1.471c-12.395,1.823-24.623,4.38-36.555,8.24
	c-1.066,0.344-3.373,0.02-2.164,2.497c0.248,2.532,2.193,3.723,4.014,4.962c1.51,1.029,1.549,0.969,1.416,3.041
	c0.641-0.113,1.191-0.599,1.891-0.459c0.281,0.073,0.525,0.216,0.734,0.42c0.949,1.041,0.09,3.17,2.488,3.505
	c1.09,0.152,1.15,1.961,0.391,2.873c-0.924,1.109-2.613,1.398-3.553,0.439c-1.389-1.412-3.297-1.874-4.682-3.167
	c-3.449-2.858-6.965-5.645-10.318-8.611c-1.395-1.232-2.697-1.504-4.436-1.025c-7.318,2.016-14.146,5.21-20.865,8.649
	c-4.17,2.131-8.264,4.413-12.627,6.756c-0.459-1.655-0.883-3.186-1.428-5.159c2.705-1.652,5.383-3.499,8.244-4.997
	c9.262-4.849,19.186-7.987,29.18-10.872c20.01-5.774,40.365-10.063,60.891-13.491c15.793-2.639,31.623-5.08,47.496-7.188
	c13.953-1.854,27.969-3.292,41.986-4.602c14.428-1.346,28.877-2.541,43.342-3.391c19.674-1.158,39.375-1.446,59.072-0.333
	c1.729,0.098,3.461,0.064,5.193,0.092c0.777-0.335,1.551-0.564,2.266,0.14c2.918,0.333,5.836,0.704,8.758,0.992
	c11.246,1.107,22.4,2.735,33.355,5.567C370.297,208.944,370.818,208.921,371.322,208.967z"/>
<path fill-rule="evenodd" clip-rule="evenodd" fill="#FEFEFC" d="M33.217,276.274c-0.809-1.025-1.615-2.053-2.422-3.078
	c-0.736-1.665-1.441-3.346-2.219-4.992c-2.08-4.408-4.18-8.81-6.305-13.197c-0.346-0.718-0.852-1.357-1.285-2.033
	c-2.043-5.714-4.086-11.426-6.131-17.141c-1.096-4.218-2.316-8.408-3.256-12.662c-1.094-4.938-1.939-9.932-2.893-14.901
	c-0.211-2.036-0.422-4.072-0.631-6.108c-1.457-1.026-0.676-2.559-0.865-3.868c-0.166-1.164,0.32-2.387-0.316-3.508
	c0-7.958,0-15.915,0-23.873c0.762-3.432-0.211-7.066,1.219-10.421c0.004-0.608,0.006-1.219,0.008-1.828
	c0.574-2.643,1.225-5.271,1.703-7.929c1.604-8.922,3.934-17.641,7.066-26.147c0.174-0.473,0.268-0.975,0.4-1.463
	c1.428-3.273,2.854-6.546,4.285-9.819c1.137-0.055,1.01,0.537,0.635,1.253c-1.047,4.233-2.084,8.471-3.143,12.703
	c-1.68,6.695-2.818,13.475-3.682,20.33c-1.324,10.514-2.051,21.043-1.709,31.627c0.143,4.45,0.674,8.892,1.111,13.328
	c0.357,3.628,0.713,7.266,1.291,10.863c0.92,5.699,1.75,11.436,3.117,17.034c1.975,8.084,4.217,16.116,6.682,24.065
	c2.869,9.246,6.701,18.133,10.996,26.814c0.492,0.994,0.846,2.059,1.264,3.092c0.9,2.614-2.441,2.024-2.5,3.815
	C34.367,277.81,34.375,276.362,33.217,276.274z"/>
<path fill-rule="evenodd" clip-rule="evenodd" fill="#FEFEFC" d="M372.016,213.135c4.83,0.996,9.4,2.64,13.508,5.434
	c0.619,0.882,1.117,1.564,0.793,2.941c-2.52,10.775-5.891,21.266-10.066,31.505c-1.412,3.467-2.852,6.923-4.279,10.384
	c-0.525,0.853-1.1,1.681-1.568,2.563c-2.141,4.027-4.268,8.061-6.357,12.113c-0.504,0.979-0.848,2.043-1.268,3.068
	c-0.406,0.422-0.891,0.794-1.209,1.276c-1.459,2.217-2.871,4.464-4.301,6.7c-1.65-0.455-0.85-1.519-0.607-2.444
	c3.186-8.8,6.125-17.681,8.199-26.815c1.703-7.512,3.424-15.023,4.102-22.73c0.514-5.853,1.148-11.697,1.836-17.533
	C371.051,217.424,371.6,215.288,372.016,213.135z"/>
<path fill-rule="evenodd" clip-rule="evenodd" fill="#020202" d="M79.705,246.293c1.207,0.314,2.492,0.464,3.59,1.002
	c0.688,0.338,1.088,1.257,1.709,2.03c0.742-0.134,1.623-0.291,2.684-0.479c-0.049-0.782-0.092-1.528-0.145-2.388
	c-1.043-0.122-1.924-0.228-2.721-0.32c0-1.252,0-2.466,0-3.68c0.74-0.174,1.348,0.154,1.949,0.511
	c1.648,1.25,2.967,2.85,4.494,4.231c2.879,3.128,6.393,5.562,9.365,8.581c0.305,0.96,0.992,1.833,0.686,2.938
	c-0.859,1.231-1.719,2.462-2.701,3.87c-1.604-1.346-3.008-2.495-4.379-3.682C89.387,254.71,84.549,250.499,79.705,246.293z"/>
<path fill-rule="evenodd" clip-rule="evenodd" fill="#040404" d="M326.043,231.59c0.268,2.564,0.098,2.721-2.234,2.589
	c-0.49-0.028-1.004,0.345-1.506,0.534c-6.299-6.04-12.59-12.088-18.9-18.119c-3.369-3.221-6.771-6.409-10.162-9.612
	c-7.684-0.566-15.383-0.065-23.072-0.271c-2.408-0.063-4.844,0.404-7.229-0.298c0.756-0.198,1.508-0.564,2.266-0.568
	c8.658-0.044,17.318-0.05,25.975-0.011c1.061,0.005,2.119,0.332,3.098,0.495c0.205-0.765,0.459-1.718,0.715-2.671
	c0.547,0.31,1.094,0.62,1.641,0.932c-0.158,2.057,1.879,2.557,2.76,3.874c1.717,1.787,3.473,3.538,5.262,5.255
	c0.211,0.183,0.408,0.379,0.605,0.576c2.992,2.326,5.613,5.051,8.299,7.71c2.875,3.297,6.484,5.821,9.477,8.979
	C324.053,232.057,325.053,231.388,326.043,231.59z"/>
<path fill-rule="evenodd" clip-rule="evenodd" fill="#040405" d="M101.316,258.72c-0.18-0.886-1.572-1.445-0.695-2.612
	c-0.146-2.378,1.609-3.951,2.85-5.457c5.959-7.233,11.014-15.129,16.818-22.467c0.775-0.983,1.291-2.421,2.982-2.211
	c-0.207,0.855-0.336,1.737-0.641,2.556c-0.275,0.746-0.174,1.12,0.65,1.181c-0.195,0.441-0.311,0.942-0.596,1.314
	c-6.822,8.965-13.664,17.915-20.51,26.861C101.936,258.198,101.605,258.443,101.316,258.72z"/>
<path fill-rule="evenodd" clip-rule="evenodd" fill="#E0EEED" d="M262.939,206.412c7.123-0.063,14.248-0.139,21.371-0.182
	c2.34-0.015,4.686,0.015,7.023,0.121c0.645,0.029,1.271,0.409,1.906,0.629c-9.975,0.021-19.951,0.048-29.926,0.052
	c-0.49,0-0.982-0.188-1.471-0.289C262.211,206.634,262.576,206.522,262.939,206.412z"/>
<path fill-rule="evenodd" clip-rule="evenodd" fill="#FCFCF9" d="M33.217,276.274c0.307-0.246,0.615-0.492,1.068-0.855
	c0.346,0.722,0.674,1.405,1.15,2.399c0.959-1.207,1.83-2.307,2.703-3.403c0.777,1.171,1.555,2.343,2.635,3.97
	c-1.473-0.6-2.484-1.011-3.756-1.528c-0.482,1.557-0.91,2.932-1.336,4.308C34.859,279.533,34.037,277.905,33.217,276.274z"/>
<path fill-rule="evenodd" clip-rule="evenodd" fill="#FBFAF6" d="M356.66,286.675c0.203,0.815,0.404,1.63,0.607,2.444
	c-0.822,1.428-1.643,2.855-2.463,4.284c-0.404,0.003-0.805,0.007-1.207,0.011c0.006-0.406,0.01-0.811,0.016-1.218
	c0.725-1.17,0.523-2.8,1.83-3.68C355.85,287.902,356.256,287.29,356.66,286.675z"/>
<path fill-rule="evenodd" clip-rule="evenodd" fill="#040404" d="M326.609,238.919c0.941,0.459,1.883,0.919,2.873,1.404
	c0.59-0.432,1.27-0.93,1.953-1.428c-0.533,0.915-1.066,1.829-1.793,3.078C328.488,240.811,327.549,239.864,326.609,238.919z"/>
<path fill-rule="evenodd" clip-rule="evenodd" fill="#E6EDEC" d="M212.104,387.205c1.172-0.063,2.348-0.126,3.521-0.189
	c0.244,0.114,0.488,0.228,0.732,0.342C214.908,387.638,213.467,388.188,212.104,387.205z"/>
<path fill-rule="evenodd" clip-rule="evenodd" fill="#F7F8F6" d="M360.35,102.282c-0.209,0.619-0.42,1.238-0.629,1.858
	c-0.377-0.998-0.756-1.996-1.135-2.994c0.125-0.115,0.25-0.229,0.371-0.344C359.42,101.296,359.887,101.788,360.35,102.282z"/>
<path fill-rule="evenodd" clip-rule="evenodd" fill="#E1E0DE" d="M305.207,71.054c0,0.205-0.002,0.41-0.002,0.617
	c-0.613-0.543-1.227-1.088-1.84-1.631c0.152-0.171,0.305-0.343,0.455-0.513C304.285,70.036,304.746,70.544,305.207,71.054z"/>
<path fill-rule="evenodd" clip-rule="evenodd" fill="#282828" d="M305.213,384.07c-1.969-4.568-3.893-9.158-5.92-13.701
	c-1.65-3.706-3.428-7.358-5.1-10.925c1.258,0.241,2.73,0.523,4.627,0.887c1.42,4.112,3.072,8.572,4.48,13.108
	c1.018,3.278,1.711,6.658,2.547,9.993C306.076,384.085,305.773,384.206,305.213,384.07z"/>
<path fill-rule="evenodd" clip-rule="evenodd" fill="#040202" d="M318.059,360.852c-1.109-2.158-2.73-3.804-4.889-4.917
	c-0.387-0.966-1.754-1.728-0.631-3.01c2.785,1.656,4.77,3.937,5.586,7.133C318.355,360.344,318.332,360.608,318.059,360.852z"/>
<path fill-rule="evenodd" clip-rule="evenodd" fill="#040202" d="M306.447,349.76c0.396-0.021,0.795-0.043,1.189-0.064
	c1.008,0.638,2.016,1.277,3.025,1.915c-1.154-0.236-2.326-0.401-3.443-0.752C306.879,350.754,306.701,350.141,306.447,349.76z"/>
<path fill-rule="evenodd" clip-rule="evenodd" fill="#0A0506" d="M293.564,349.168c0.996,0.149,1.994,0.3,2.988,0.45
	C295.174,350.742,294.889,350.699,293.564,349.168z"/>
<path fill-rule="evenodd" clip-rule="evenodd" fill="#282828" d="M118.365,382.833c0.99-5.563,3.332-10.6,6.055-15.483
	c0.971-1.743,2.037-3.435,3.076-5.173c1.168,0.581,2.049,1.02,3.234,1.61c-5.033,6.407-8.625,13.521-11.754,20.887
	C117.461,384.497,118.176,383.578,118.365,382.833z"/>
<path fill-rule="evenodd" clip-rule="evenodd" fill="#1D1C1C" d="M118.365,382.833c0.203,0.614,0.408,1.228,0.611,1.842
	c-0.211,0.632-0.422,1.266-0.633,1.897c-0.203-0.025-0.406-0.051-0.611-0.077C117.938,385.274,117.289,384.011,118.365,382.833z"/>
<path fill-rule="evenodd" clip-rule="evenodd" fill="#FCFCFA" d="M81.613,385.289c2.424-7.734,6.084-14.787,11.42-20.939
	c0.59-0.679,0.98-1.529,1.465-2.3c0.686-0.393,1.393-0.753,2.047-1.189c0.908-0.606,1.775-1.271,2.709-1.945
	c0,1.219-0.342,2.409,0.096,3.121c0.455,0.743,1.662,1.025,2.629,1.559c-6.457,4.04-11.24,9.688-15.193,16.131
	c-1.426,2.322-3.025,4.539-4.545,6.804C81.199,386.537,81.199,386.018,81.613,385.289z"/>
<path fill-rule="evenodd" clip-rule="evenodd" fill="#130E0E" d="M116.535,357.112c-3.975,3.059-6.586,7.123-8.576,11.646
	c-1.135-0.017-0.92-0.696-0.678-1.387c1.828-4.401,4.164-8.413,8.41-10.96C116.473,356.042,116.545,356.526,116.535,357.112z"/>
<path fill-rule="evenodd" clip-rule="evenodd" fill="#F6F5F2" d="M81.613,385.289c0.209,0.414,0.42,0.826,0.627,1.24
	c-0.82,1.833-1.643,3.667-2.463,5.5c-0.516,0.112-0.863,0.058-0.605-0.605C79.986,389.379,80.799,387.334,81.613,385.289z"/>
<path fill-rule="evenodd" clip-rule="evenodd" fill="#ECE6E2" d="M79.172,391.424c0.203,0.202,0.404,0.403,0.605,0.605
	c-0.275,1.099-0.547,2.2-0.867,3.286c-0.008,0.021-0.629-0.14-0.961-0.217C77.898,393.722,77.984,392.39,79.172,391.424z"/>
<path fill-rule="evenodd" clip-rule="evenodd" fill="#1D1717" d="M107.281,367.371c0.225,0.461,0.453,0.924,0.678,1.387
	c-0.984,1.104-0.521,3.158-2.408,3.672C105.344,370.477,106.184,368.879,107.281,367.371z"/>
<path fill-rule="evenodd" clip-rule="evenodd" fill="#0F100F" d="M103.164,380.426c0.881,2.187,1.008,4.277-0.773,6.125
	C102.648,384.51,102.906,382.468,103.164,380.426z"/>
<path fill-rule="evenodd" clip-rule="evenodd" fill="#0D0D0C" d="M105.479,373.541c-0.252,1.483-0.465,2.977-0.801,4.44
	c-0.057,0.252-0.637,0.386-0.975,0.573C103.838,376.722,103.768,374.815,105.479,373.541z"/>
<path fill-rule="evenodd" clip-rule="evenodd" fill="#1C1212" d="M116.535,357.112c-0.279-0.233-0.563-0.467-0.844-0.701
	c1.299-0.77,2.6-1.537,3.898-2.307C119.438,355.983,117.582,356.138,116.535,357.112z"/>
<path fill-rule="evenodd" clip-rule="evenodd" fill="#0E0C0C" d="M318.057,360.852c0.023-0.265,0.045-0.529,0.068-0.794
	c0.998,1.553,2.252,2.998,2.943,4.676c1.965,4.757,3.625,9.621,3.822,14.856c0.031,0.85,0.379,1.688,0.582,2.533
	c-0.016,0.151-0.047,0.302-0.092,0.443c-0.832,0.267-1.027-0.231-1.176-0.905c-0.648-2.947-1.162-5.937-2.035-8.816
	C320.945,368.803,319.443,364.845,318.057,360.852z"/>
<path fill-rule="evenodd" clip-rule="evenodd" fill="#292929" d="M326.594,390.813c-0.16-1.481-0.322-2.964-0.482-4.446
	C326.271,387.849,326.434,389.331,326.594,390.813z"/>
<path fill-rule="evenodd" clip-rule="evenodd" fill="#F4F6F5" d="M331.551,365.692c-0.209,0.208-0.42,0.416-0.627,0.624
	c-0.393-0.603-0.787-1.208-1.18-1.813c0.146-0.115,0.293-0.232,0.438-0.349C330.639,364.667,331.096,365.181,331.551,365.692z"/>
<path fill-rule="evenodd" clip-rule="evenodd" fill="#1e6bb8" d="M123.271,225.973c-1.174,1.376-2.43,2.691-3.506,4.139
	c-4.498,6.051-8.939,12.143-13.408,18.217c-1.908,2.596-3.824,5.186-5.736,7.778c-0.377-0.11-0.863-0.111-1.119-0.354
	c-2.922-2.73-5.811-5.499-8.707-8.257c-0.195-0.398-0.041-0.744,0.131-1.111c1.346-2.916,1.121-3.379-2.018-4.239
	c-0.791-0.059-1.402,0.266-1.885,0.879c-0.191,0.158-0.408,0.266-0.648,0.319c-0.52-0.296-1.037-0.59-1.553-0.886l-0.049,0.027
	c-2.998-2.092-5.662-4.547-8.021-7.334c-0.723-0.672-1.443-1.344-2.463-2.293c1.908-0.661,3.479-1.28,5.092-1.751
	c4.365-1.274,8.693-2.794,13.143-3.662c9.729-1.896,19.521-3.449,29.289-5.149c0.9-0.157,1.791-0.364,2.689-0.549
	c0.916-0.523,1.42-0.276,1.162,0.78c-0.164,0.686-0.779,1.165-1.334,1.617C123.979,224.753,123.623,225.364,123.271,225.973z"/>
<path fill-rule="evenodd" clip-rule="evenodd" fill="#1e6bb8" d="M326.043,231.59c-0.43,0.527-0.859,1.055-1.541,1.892
	c-3.838-3.749-7.594-7.417-11.352-11.087c-2.541-2.426-2.018-6.34-4.289-9.178c-0.098,0.629,0.34,0.901,0.094,1.273
	c-0.682,0.618-1.541,0.708-2.385,0.834c-0.789,0.003-1.314-0.518-1.877-0.96l-0.066-0.063c-1.43-2.257-3.422-3.93-5.619-5.389
	c-1.354-1.221-2.709-2.443-4.338-3.915c1.014-0.211,1.488-0.31,1.963-0.408c0.205-0.004,0.41-0.008,0.615-0.012
	c6.563-0.668,13.141-0.152,19.711-0.248c2.203-0.032,4.445-0.449,6.623,0.265c5.836,0.601,11.67,1.184,17.502,1.821
	c0.988,0.107,1.951,0.446,3.254,0.757c-3.145,4.371-6.141,8.532-9.135,12.691c-1.451,3.871-4.613,6.391-7.313,9.279
	C327.275,229.958,326.658,230.774,326.043,231.59z"/>
<path fill-rule="evenodd" clip-rule="evenodd" fill="#030304" d="M327.891,229.143c2.438-3.093,4.875-6.186,7.313-9.278
	c-0.1,0.988-0.145,1.985-0.316,2.96c-0.23,1.299-0.594,2.335-2.199,2.826c-1.309,0.4-2.469,1.398-2.77,3.125
	C329.725,229.884,328.754,229.998,327.891,229.143z"/>
<path fill-rule="evenodd" clip-rule="evenodd" fill="#020202" d="M76.752,235.151c2.674,2.444,5.346,4.891,8.02,7.335
	c-0.732,0.272-1.469,0.546-2.375,0.882c-0.07-0.603-0.088-1.175-0.219-1.72c-0.088-0.369-0.393-1.025-0.5-1.006
	c-2.014,0.374-2.379-1.736-3.664-2.354C76.502,237.563,76.268,236.561,76.752,235.151z"/>
<path fill-rule="evenodd" clip-rule="evenodd" fill="#040404" d="M323.582,204.594c-8.775-0.005-17.555-0.011-26.334-0.017
	c2.57-0.249,5.135-0.654,7.709-0.712c5.07-0.117,10.146-0.085,15.219-0.006C321.316,203.877,322.449,204.338,323.582,204.594z"/>
<path fill-rule="evenodd" clip-rule="evenodd" fill="#040405" d="M124.33,224.145c0.234-0.423,0.439-0.866,0.713-1.263
	c0.508-0.73,0.186-1.018-0.541-1.135c0.633-1.171,1.449-1.583,2.773-0.555C126.645,222.562,126.367,224.157,124.33,224.145z"/>
<path fill-rule="evenodd" clip-rule="evenodd" fill="#020107" d="M336.582,219.977c0.352-0.518,0.703-1.034,1.43-2.102
	c0,1.045,0.117,1.498-0.033,1.831c-0.139,0.304-0.563,0.479-0.859,0.71C336.939,220.271,336.76,220.122,336.582,219.977z"/>
<path fill-rule="evenodd" clip-rule="evenodd" fill="#1e6bb8" d="M88.361,241.347c1.771-0.187,3.383,0.396,4.1,1.956
	c0.783,1.71-0.428,3.056-1.666,4.193c-1.473-1.384-2.945-2.77-4.42-4.153c0,0.001,0.172-0.181,0.172-0.181
	c1.572-0.797,2.238,0.896,3.438,1.139C89.67,243.25,86.793,243.453,88.361,241.347z"/>
<path fill-rule="evenodd" clip-rule="evenodd" fill="#1e6bb8" d="M308.881,214.395c-0.699-0.347-1.4-0.694-2.1-1.042
	c1.713-1.103,4.025-0.22,4.299,1.977c0.311,2.508,1.625,4.646,2.072,7.065c-2.82-2.677-5.641-5.354-8.459-8.03
	c0.582,0.213,1.16,0.428,1.742,0.642C307.139,214.348,308.486,216.277,308.881,214.395z"/>
<path fill-rule="evenodd" clip-rule="evenodd" fill="#1e6bb8" d="M299.008,208.912c2.617,0.281,3.721,2.79,5.738,3.964
	c0.176,0.104-0.068,0.933-0.119,1.425C302.756,212.506,300.881,210.71,299.008,208.912z"/>
<path fill-rule="evenodd" clip-rule="evenodd" fill="#1e6bb8" d="M308.881,214.395c0.225,0.666,0.447,1.332,0.67,1.998
	c-0.191,0.124-0.383,0.247-0.574,0.372c-0.848-0.587-1.693-1.174-2.541-1.759C307.252,214.801,308.066,214.599,308.881,214.395z"/>
</svg>
